<svg xmlns="http://www.w3.org/2000/svg" viewBox="0 0 54 54"><defs><style>.a{fill:#383d48;}.b{fill:#3997da;}</style></defs><rect class="a" width="1.8" height="3.6" transform="translate(20.7 36.9)"/><rect class="a" width="1.8" height="3.6" transform="translate(24.3 36.9)"/><rect class="a" width="1.8" height="3.6" transform="translate(27.9 36.9)"/><rect class="a" width="1.8" height="3.6" transform="translate(31.5 36.9)"/><rect class="a" width="1.8" height="3.6" transform="translate(35.1 36.9)"/><rect class="a" width="1.8" height="3.6" transform="translate(17.1 36.9)"/><path class="a" d="M54,14.4V12.6H49.5V9A4.505,4.505,0,0,0,45,4.5H41.4V0H39.6V4.5H36V0H34.2V4.5H30.6V0H28.8V4.5H25.2V0H23.4V4.5H19.8V0H18V4.5H14.4V0H12.6V4.5H9A4.505,4.505,0,0,0,4.5,9v3.6H0v1.8H4.5V18H0v1.8H4.5v3.6H0v1.8H4.5v3.6H0v1.8H4.5v3.6H0V36H4.5v3.6H0v1.8H4.5V45A4.505,4.505,0,0,0,9,49.5h3.6V54h1.8V49.5H18V54h1.8V49.5h3.6V54h1.8V49.5h3.6V54h1.8V49.5h3.6V54H36V49.5h3.6V54h1.8V49.5H45A4.505,4.505,0,0,0,49.5,45V41.4H54V39.6H49.5V36H54V34.2H49.5V30.6H54V28.8H49.5V25.2H54V23.4H49.5V19.8H54V18H49.5V14.4ZM47.7,45A2.7,2.7,0,0,1,45,47.7H9A2.7,2.7,0,0,1,6.3,45V9A2.7,2.7,0,0,1,9,6.3H45A2.7,2.7,0,0,1,47.7,9Z"/><path class="b" d="M88,122.2h34.2V88H88Zm1.8-32.4h30.6v30.6H89.8Z" transform="translate(-78.1 -78.1)"/><path class="b" d="M141.4,138.7a2.7,2.7,0,1,0-2.7,2.7A2.7,2.7,0,0,0,141.4,138.7Zm-3.6,0a.9.9,0,1,1,.9.9A.9.9,0,0,1,137.8,138.7Z" transform="translate(-120.7 -120.7)"/><rect class="a" width="19.8" height="1.8" transform="translate(18 22.5)"/><rect class="b" width="16.2" height="1.8" transform="translate(18 26.1)"/><rect class="a" width="7.2" height="1.8" transform="translate(18 29.7)"/><rect class="a" width="1.8" height="1.8" transform="translate(27 29.7)"/><rect class="b" width="1.8" height="1.8" transform="translate(36 26.1)"/></svg>