<?xml version="1.0" encoding="iso-8859-1"?>
<!-- Generator: Adobe Illustrator 19.0.0, SVG Export Plug-In . SVG Version: 6.00 Build 0)  -->
<svg version="1.1" id="Capa_1" xmlns="http://www.w3.org/2000/svg" xmlns:xlink="http://www.w3.org/1999/xlink" x="0px" y="0px"
	 viewBox="0 0 518.01 518.01" style="enable-background:new 0 0 518.01 518.01;" xml:space="preserve">
<path style="fill:#FFD15C;" d="M328.533,514.071h-307.2C9.6,514.071,0,504.471,0,492.738V222.871c0-48,39.467-87.467,87.467-87.467
	h173.867c48,0,87.467,39.467,87.467,87.467v269.867C349.867,504.471,340.267,514.071,328.533,514.071z"/>
<rect x="87.467" y="117.271" style="fill:#F8B64C;" width="173.867" height="18.133"/>
<path style="fill:#40596B;" d="M288,2.071H61.867c-11.733,0-21.333,9.6-21.333,21.333v72.533c0,11.733,9.6,21.333,21.333,21.333H288
	c11.733,0,21.333-9.6,21.333-21.333V23.405C309.333,11.671,299.733,2.071,288,2.071z"/>
<rect y="233.538" style="fill:#FF7058;" width="348.8" height="180.267"/>
<polygon style="fill:#FFFFFF;" points="238.933,313.538 185.6,313.538 185.6,260.205 164.267,260.205 164.267,313.538 
	110.933,313.538 110.933,334.871 164.267,334.871 164.267,388.205 185.6,388.205 185.6,334.871 238.933,334.871 "/>
<path style="fill:#ACB3BA;" d="M481.067,291.138c0-1.067-1.067-1.067-1.067-2.133l-1.067-1.067l1.067,1.067
	C480,290.071,480,290.071,481.067,291.138z"/>
<path style="fill:#CDD6E0;" d="M469.333,280.471c3.2,2.133,5.333,5.333,8.533,7.467c-52.267-51.2-135.467-50.133-186.667,1.067
	c-52.267,52.267-52.267,136.533,0,188.8c-3.2-3.2-6.4-6.4-9.6-10.667L469.333,280.471z"/>
<path style="fill:#ACB3BA;" d="M481.067,291.138c3.2,3.2,5.333,5.333,7.467,8.533L300.8,486.338c-3.2-3.2-6.4-6.4-10.667-9.6
	c52.267,52.267,136.533,52.267,188.8,0C530.133,426.605,531.2,343.405,481.067,291.138z"/>
<path style="fill:#F2F2F2;" d="M488.533,299.671c-2.133-3.2-5.333-5.333-7.467-8.533c0-1.067-1.067-1.067-1.067-2.133l-1.067-1.067
	c-3.2-3.2-5.333-5.333-8.533-7.467L281.6,467.138c3.2,3.2,6.4,6.4,9.6,10.667c3.2,3.2,6.4,6.4,10.667,9.6L488.533,299.671z"/>
<g>
	<rect x="68.267" y="21.271" style="fill:#334A5E;" width="17.067" height="75.733"/>
	<rect x="117.333" y="21.271" style="fill:#334A5E;" width="17.067" height="75.733"/>
	<rect x="166.4" y="21.271" style="fill:#334A5E;" width="17.067" height="75.733"/>
	<rect x="214.4" y="21.271" style="fill:#334A5E;" width="17.067" height="75.733"/>
	<rect x="263.467" y="21.271" style="fill:#334A5E;" width="17.067" height="75.733"/>
</g>
<g>
</g>
<g>
</g>
<g>
</g>
<g>
</g>
<g>
</g>
<g>
</g>
<g>
</g>
<g>
</g>
<g>
</g>
<g>
</g>
<g>
</g>
<g>
</g>
<g>
</g>
<g>
</g>
<g>
</g>
</svg>
