<?xml version="1.0" encoding="UTF-8" standalone="no"?><!DOCTYPE svg PUBLIC "-//W3C//DTD SVG 1.1//EN" "http://www.w3.org/Graphics/SVG/1.1/DTD/svg11.dtd"><svg width="100%" height="100%" viewBox="0 0 31 34" version="1.1" xmlns="http://www.w3.org/2000/svg" xmlns:xlink="http://www.w3.org/1999/xlink" xml:space="preserve" xmlns:serif="http://www.serif.com/" style="fill-rule:evenodd;clip-rule:evenodd;stroke-linejoin:round;stroke-miterlimit:1.41421;"><rect id="Artboard1" x="0" y="0" width="30" height="33.93" style="fill:none;"/><path d="M14.979,33.924c-0.432,-0.129 -7.403,-2.254 -11.068,-6.319c-3.783,-4.197 -3.724,-10.108 -3.724,-14.423c0,-4.315 0.236,-7.803 3.901,-9.044c3.666,-1.242 10.912,-4.138 10.912,-4.138l0.319,0.127c1.437,0.571 7.386,2.925 10.594,4.011c3.665,1.241 3.901,4.729 3.901,9.044c0,4.315 0.059,10.226 -3.724,14.423c-3.783,4.196 -11.09,6.325 -11.09,6.325l-0.021,-0.006Z" style="fill:#c42026;"/></svg>