<?xml version="1.0" encoding="UTF-8" standalone="no"?><!DOCTYPE svg PUBLIC "-//W3C//DTD SVG 1.1//EN" "http://www.w3.org/Graphics/SVG/1.1/DTD/svg11.dtd"><svg width="100%" height="100%" viewBox="0 0 179 62" version="1.1" xmlns="http://www.w3.org/2000/svg" xmlns:xlink="http://www.w3.org/1999/xlink" xml:space="preserve" xmlns:serif="http://www.serif.com/" style="fill-rule:evenodd;clip-rule:evenodd;stroke-linejoin:round;stroke-miterlimit:1.41421;"><rect id="Artboard1" x="0" y="0" width="179" height="62" style="fill:none;"/><g><g><path d="M4.277,58.541c0.249,0.036 0.539,0.063 0.869,0.08c0.329,0.018 0.627,0.027 0.895,0.027c0.375,0 0.766,-0.035 1.176,-0.107c0.41,-0.071 0.792,-0.209 1.15,-0.414c0.356,-0.204 0.65,-0.49 0.882,-0.856c0.232,-0.364 0.348,-0.842 0.348,-1.43c0,-0.552 -0.09,-1.011 -0.268,-1.377c-0.178,-0.364 -0.432,-0.659 -0.762,-0.882c-0.33,-0.222 -0.721,-0.378 -1.176,-0.468c-0.454,-0.089 -0.958,-0.133 -1.51,-0.133l-1.604,0l0,5.56Zm1.176,-8.501c0.445,0 0.86,-0.04 1.244,-0.12c0.383,-0.081 0.716,-0.223 1.002,-0.427c0.284,-0.205 0.507,-0.482 0.668,-0.83c0.16,-0.347 0.241,-0.788 0.241,-1.323c0,-0.516 -0.095,-0.94 -0.281,-1.27c-0.188,-0.329 -0.428,-0.588 -0.722,-0.775c-0.294,-0.187 -0.624,-0.312 -0.989,-0.375c-0.366,-0.061 -0.726,-0.092 -1.083,-0.092c-0.499,0 -0.918,0.026 -1.256,0.079l0,5.133l1.176,0Zm-5.052,-7.806c0.57,-0.089 1.229,-0.16 1.977,-0.214c0.749,-0.053 1.684,-0.08 2.807,-0.08c0.981,0 1.907,0.08 2.781,0.241c0.873,0.16 1.635,0.432 2.286,0.815c0.65,0.384 1.163,0.896 1.537,1.537c0.374,0.642 0.562,1.444 0.562,2.407c0,0.569 -0.086,1.1 -0.255,1.59c-0.17,0.49 -0.397,0.918 -0.681,1.282c-0.286,0.366 -0.607,0.67 -0.963,0.91c-0.357,0.241 -0.722,0.388 -1.096,0.441c0.409,0.053 0.864,0.178 1.364,0.374c0.498,0.197 0.961,0.486 1.389,0.868c0.428,0.384 0.785,0.88 1.07,1.484c0.284,0.607 0.427,1.337 0.427,2.193c0,1.159 -0.218,2.107 -0.655,2.847c-0.437,0.74 -1.025,1.323 -1.764,1.751c-0.74,0.428 -1.596,0.721 -2.566,0.882c-0.972,0.161 -1.992,0.24 -3.061,0.24c-0.82,0 -1.631,-0.023 -2.433,-0.066c-0.802,-0.045 -1.711,-0.13 -2.727,-0.254l0,-19.248Z" style="fill:#343535;fill-rule:nonzero;"/><path d="M24.968,53.088c-0.035,-0.856 -0.272,-1.547 -0.709,-2.072c-0.436,-0.526 -1.046,-0.788 -1.831,-0.788c-0.892,0 -1.567,0.249 -2.031,0.748c-0.464,0.499 -0.74,1.203 -0.829,2.112l5.4,0Zm-5.427,2.647c0.071,1.069 0.445,1.844 1.123,2.325c0.678,0.481 1.568,0.722 2.673,0.722c0.606,0 1.225,-0.058 1.858,-0.174c0.633,-0.116 1.234,-0.28 1.805,-0.495c0.195,0.357 0.365,0.785 0.508,1.284c0.142,0.499 0.222,1.033 0.24,1.604c-1.39,0.535 -2.958,0.802 -4.705,0.802c-1.283,0 -2.383,-0.179 -3.301,-0.535c-0.918,-0.357 -1.667,-0.851 -2.245,-1.484c-0.58,-0.632 -1.008,-1.385 -1.284,-2.259c-0.277,-0.872 -0.415,-1.827 -0.415,-2.86c0,-1.016 0.144,-1.969 0.428,-2.86c0.285,-0.891 0.709,-1.667 1.271,-2.327c0.56,-0.659 1.255,-1.18 2.084,-1.563c0.829,-0.383 1.796,-0.575 2.9,-0.575c0.963,0 1.819,0.17 2.567,0.508c0.749,0.339 1.386,0.802 1.911,1.39c0.526,0.589 0.922,1.288 1.19,2.098c0.267,0.812 0.402,1.68 0.402,2.607c0,0.339 -0.014,0.673 -0.041,1.003c-0.026,0.33 -0.058,0.592 -0.094,0.789l-8.875,0Z" style="fill:#343535;fill-rule:nonzero;"/><path d="M34.217,55.467c-0.998,-0.285 -1.778,-0.708 -2.339,-1.27c-0.561,-0.561 -0.842,-1.404 -0.842,-2.526c0,-1.354 0.485,-2.415 1.457,-3.182c0.972,-0.765 2.295,-1.149 3.97,-1.149c0.695,0 1.381,0.063 2.058,0.188c0.678,0.124 1.364,0.312 2.059,0.561c-0.036,0.463 -0.125,0.945 -0.268,1.443c-0.142,0.499 -0.312,0.936 -0.508,1.31c-0.427,-0.178 -0.899,-0.333 -1.416,-0.468c-0.517,-0.133 -1.061,-0.2 -1.631,-0.2c-0.606,0 -1.078,0.093 -1.417,0.281c-0.338,0.186 -0.508,0.486 -0.508,0.895c0,0.392 0.12,0.668 0.361,0.829c0.241,0.16 0.583,0.312 1.03,0.454l1.523,0.455c0.499,0.143 0.949,0.316 1.351,0.521c0.4,0.205 0.744,0.459 1.028,0.761c0.285,0.304 0.508,0.679 0.668,1.123c0.161,0.446 0.241,0.989 0.241,1.631c0,0.66 -0.138,1.275 -0.415,1.845c-0.275,0.57 -0.676,1.065 -1.202,1.484c-0.526,0.419 -1.163,0.748 -1.912,0.989c-0.748,0.24 -1.594,0.361 -2.539,0.361c-0.427,0 -0.821,-0.013 -1.177,-0.04c-0.356,-0.027 -0.699,-0.071 -1.028,-0.134c-0.33,-0.062 -0.656,-0.138 -0.976,-0.228c-0.321,-0.088 -0.669,-0.204 -1.043,-0.346c0.036,-0.482 0.12,-0.967 0.254,-1.458c0.134,-0.49 0.308,-0.966 0.522,-1.431c0.587,0.233 1.144,0.406 1.671,0.523c0.524,0.115 1.072,0.173 1.643,0.173c0.249,0 0.522,-0.022 0.815,-0.067c0.295,-0.044 0.566,-0.124 0.816,-0.24c0.249,-0.116 0.459,-0.268 0.628,-0.455c0.17,-0.188 0.254,-0.431 0.254,-0.735c0,-0.428 -0.129,-0.735 -0.387,-0.922c-0.259,-0.188 -0.62,-0.352 -1.083,-0.495l-1.658,-0.481Z" style="fill:#343535;fill-rule:nonzero;"/><path d="M44.216,50.548l-1.739,0l-0.133,-0.535l4.998,-6.389l0.616,0l0,4.037l3.235,0c0.054,0.267 0.088,0.508 0.107,0.721c0.017,0.215 0.026,0.437 0.026,0.669c0,0.249 -0.009,0.49 -0.026,0.722c-0.019,0.232 -0.053,0.49 -0.107,0.775l-3.235,0l0,5.427c0,0.552 0.044,0.998 0.134,1.336c0.088,0.339 0.217,0.607 0.387,0.803c0.169,0.196 0.379,0.329 0.629,0.401c0.249,0.071 0.543,0.106 0.881,0.106c0.268,0 0.53,-0.022 0.789,-0.066c0.258,-0.045 0.485,-0.085 0.682,-0.121c0.124,0.339 0.213,0.691 0.267,1.056c0.054,0.366 0.08,0.691 0.08,0.977c0,0.195 -0.004,0.36 -0.013,0.494c-0.009,0.133 -0.023,0.263 -0.04,0.387c-0.821,0.196 -1.667,0.295 -2.54,0.295c-1.622,0 -2.86,-0.379 -3.716,-1.137c-0.855,-0.758 -1.282,-1.991 -1.282,-3.702l0,-6.256Z" style="fill:#343535;fill-rule:nonzero;"/><path d="M54.908,42.261c0.108,-0.018 0.245,-0.031 0.415,-0.041c0.169,-0.008 0.342,-0.013 0.521,-0.013c0.16,0 0.321,0.005 0.481,0.013c0.16,0.01 0.303,0.023 0.428,0.041l0,17.536l8.207,0c0.017,0.108 0.031,0.246 0.04,0.416c0.009,0.168 0.014,0.316 0.014,0.44c0,0.143 -0.005,0.29 -0.014,0.441c-0.009,0.152 -0.023,0.281 -0.04,0.388l-10.052,0l0,-19.221Z" style="fill:#343535;fill-rule:nonzero;"/><path d="M73.113,45.629c-0.321,0.054 -0.686,0.08 -1.096,0.08c-0.267,0 -0.561,-0.026 -0.882,-0.08l3.128,-3.475c0.195,-0.036 0.396,-0.053 0.602,-0.053l0.6,0c0.215,0 0.428,0.004 0.643,0.012c0.213,0.01 0.418,0.023 0.614,0.041l-3.609,3.475Zm3.876,7.834c0,-0.554 -0.071,-1.097 -0.213,-1.631c-0.144,-0.535 -0.366,-1.003 -0.668,-1.404c-0.304,-0.401 -0.696,-0.726 -1.177,-0.976c-0.481,-0.25 -1.06,-0.374 -1.738,-0.374c-1.248,0 -2.219,0.383 -2.913,1.15c-0.695,0.766 -1.114,1.844 -1.257,3.235l7.966,0Zm-8.02,1.469c0,1.819 0.419,3.155 1.257,4.01c0.838,0.856 2.094,1.283 3.77,1.283c0.676,0 1.305,-0.057 1.884,-0.173c0.579,-0.116 1.145,-0.272 1.697,-0.468c0.09,0.196 0.162,0.437 0.215,0.721c0.053,0.286 0.088,0.545 0.106,0.776c-0.516,0.232 -1.122,0.41 -1.817,0.535c-0.696,0.124 -1.453,0.186 -2.273,0.186c-1.176,0 -2.187,-0.174 -3.034,-0.52c-0.847,-0.348 -1.542,-0.834 -2.085,-1.458c-0.544,-0.623 -0.945,-1.367 -1.203,-2.232c-0.258,-0.864 -0.388,-1.813 -0.388,-2.847c0,-0.998 0.121,-1.933 0.361,-2.807c0.241,-0.873 0.606,-1.64 1.096,-2.298c0.49,-0.659 1.118,-1.177 1.884,-1.551c0.767,-0.375 1.685,-0.561 2.754,-0.561c0.891,0 1.684,0.151 2.38,0.454c0.694,0.303 1.278,0.726 1.75,1.269c0.472,0.545 0.83,1.195 1.069,1.952c0.241,0.758 0.362,1.582 0.362,2.473c0,0.16 -0.005,0.365 -0.014,0.614c-0.009,0.25 -0.022,0.464 -0.04,0.642l-9.731,0Z" style="fill:#343535;fill-rule:nonzero;"/><path d="M85.517,54.451l4.892,-6.603c0.285,-0.054 0.598,-0.081 0.936,-0.081c0.391,0 0.766,0.027 1.123,0.081l-4.866,6.416l5.748,7.218c-0.321,0.054 -0.642,0.08 -0.962,0.08c-0.393,0 -0.776,-0.026 -1.15,-0.08l-5.721,-7.031Zm-2.887,-12.618c0.107,-0.017 0.254,-0.03 0.441,-0.04c0.187,-0.009 0.334,-0.013 0.441,-0.013c0.089,0 0.232,0.004 0.428,0.013c0.196,0.01 0.347,0.023 0.454,0.04l0,19.649c-0.107,0.017 -0.258,0.031 -0.454,0.04c-0.196,0.008 -0.339,0.014 -0.428,0.014c-0.107,0 -0.254,-0.006 -0.441,-0.014c-0.187,-0.009 -0.334,-0.023 -0.441,-0.04l0,-19.649Z" style="fill:#343535;fill-rule:nonzero;"/><path d="M100.006,45.629c-0.321,0.054 -0.686,0.08 -1.096,0.08c-0.268,0 -0.561,-0.026 -0.882,-0.08l3.128,-3.475c0.196,-0.036 0.396,-0.053 0.602,-0.053l0.601,0c0.214,0 0.428,0.004 0.641,0.012c0.215,0.01 0.419,0.023 0.615,0.041l-3.609,3.475Zm3.288,9.223c-0.303,-0.035 -0.682,-0.075 -1.136,-0.12c-0.454,-0.044 -0.886,-0.067 -1.296,-0.067c-1.337,0 -2.371,0.25 -3.101,0.748c-0.732,0.5 -1.096,1.213 -1.096,2.139c0,0.588 0.11,1.061 0.334,1.417c0.223,0.357 0.512,0.628 0.869,0.816c0.356,0.186 0.748,0.311 1.176,0.374c0.428,0.062 0.856,0.093 1.283,0.093c0.552,0 1.069,-0.027 1.55,-0.08c0.482,-0.054 0.954,-0.124 1.417,-0.214l0,-5.106Zm0,-2.379c0,-1.176 -0.276,-2.036 -0.828,-2.58c-0.553,-0.544 -1.373,-0.815 -2.46,-0.815c-0.713,0 -1.364,0.049 -1.951,0.147c-0.589,0.098 -1.114,0.218 -1.578,0.361c-0.089,-0.161 -0.164,-0.392 -0.227,-0.696c-0.062,-0.303 -0.093,-0.587 -0.093,-0.854c0.463,-0.143 1.033,-0.264 1.711,-0.362c0.677,-0.097 1.372,-0.146 2.085,-0.146c1.728,0 3.011,0.378 3.849,1.135c0.838,0.758 1.257,1.948 1.257,3.569l0,9.009c-0.624,0.125 -1.382,0.25 -2.272,0.375c-0.892,0.124 -1.737,0.186 -2.54,0.186c-1.658,0 -2.963,-0.329 -3.916,-0.989c-0.954,-0.659 -1.431,-1.728 -1.431,-3.208c0,-0.712 0.138,-1.35 0.415,-1.912c0.276,-0.56 0.659,-1.032 1.149,-1.416c0.49,-0.382 1.078,-0.672 1.765,-0.868c0.686,-0.197 1.439,-0.295 2.259,-0.295c0.641,0 1.193,0.023 1.657,0.068c0.463,0.043 0.846,0.084 1.149,0.119l0,-0.828Z" style="fill:#343535;fill-rule:nonzero;"/><path d="M109.496,47.848c0.142,-0.017 0.281,-0.031 0.415,-0.04c0.133,-0.009 0.262,-0.014 0.387,-0.014c0.143,0 0.277,0.005 0.401,0.014c0.125,0.009 0.259,0.023 0.401,0.04c0.036,0.321 0.062,0.7 0.081,1.136c0.017,0.437 0.026,0.834 0.026,1.19c0.357,-0.659 0.855,-1.217 1.497,-1.671c0.642,-0.455 1.488,-0.682 2.54,-0.682l0.28,0c0.098,0 0.209,0.01 0.334,0.027c0.054,0.303 0.08,0.588 0.08,0.855c0,0.286 -0.026,0.562 -0.08,0.829c-0.142,-0.017 -0.254,-0.027 -0.334,-0.027l-0.254,0c-1.211,0 -2.183,0.384 -2.913,1.15c-0.731,0.767 -1.096,2.041 -1.096,3.823l0,7.004c-0.107,0.018 -0.254,0.031 -0.442,0.04c-0.187,0.008 -0.334,0.014 -0.441,0.014c-0.089,0 -0.231,-0.006 -0.428,-0.014c-0.195,-0.009 -0.346,-0.022 -0.454,-0.04l0,-13.634Z" style="fill:#343535;fill-rule:nonzero;"/><path d="M118.853,47.848c0.142,-0.017 0.28,-0.031 0.414,-0.04c0.134,-0.009 0.263,-0.014 0.388,-0.014c0.142,0 0.276,0.005 0.4,0.014c0.125,0.009 0.259,0.023 0.402,0.04c0.035,0.321 0.062,0.722 0.08,1.203c0.018,0.481 0.026,0.901 0.026,1.257c0.178,-0.321 0.41,-0.647 0.695,-0.976c0.285,-0.33 0.619,-0.629 1.004,-0.896c0.382,-0.267 0.823,-0.485 1.323,-0.655c0.498,-0.169 1.042,-0.254 1.63,-0.254c1.568,0 2.709,0.468 3.422,1.404c0.712,0.935 1.069,2.25 1.069,3.943l0,8.608c-0.107,0.018 -0.254,0.031 -0.441,0.04c-0.187,0.008 -0.334,0.014 -0.441,0.014c-0.09,0 -0.232,-0.006 -0.428,-0.014c-0.196,-0.009 -0.347,-0.022 -0.454,-0.04l0,-8.073c0,-1.515 -0.237,-2.603 -0.708,-3.262c-0.474,-0.659 -1.182,-0.989 -2.126,-0.989c-0.624,0 -1.212,0.125 -1.765,0.374c-0.552,0.25 -1.028,0.61 -1.429,1.083c-0.402,0.472 -0.718,1.056 -0.949,1.751c-0.232,0.695 -0.348,1.488 -0.348,2.379l0,6.737c-0.107,0.018 -0.254,0.031 -0.441,0.04c-0.188,0.008 -0.334,0.014 -0.442,0.014c-0.088,0 -0.231,-0.006 -0.427,-0.014c-0.196,-0.009 -0.347,-0.022 -0.454,-0.04l0,-13.634Z" style="fill:#343535;fill-rule:nonzero;"/><path d="M141.656,54.852c-0.304,-0.035 -0.682,-0.075 -1.137,-0.12c-0.454,-0.044 -0.886,-0.067 -1.296,-0.067c-1.337,0 -2.371,0.25 -3.101,0.748c-0.731,0.5 -1.096,1.213 -1.096,2.139c0,0.588 0.111,1.061 0.334,1.417c0.223,0.357 0.512,0.628 0.869,0.816c0.357,0.186 0.748,0.311 1.177,0.374c0.427,0.062 0.855,0.093 1.282,0.093c0.552,0 1.07,-0.027 1.551,-0.08c0.481,-0.053 0.953,-0.125 1.417,-0.214l0,-5.106Zm0,-2.379c0,-1.176 -0.277,-2.036 -0.829,-2.58c-0.553,-0.544 -1.373,-0.815 -2.459,-0.815c-0.714,0 -1.364,0.049 -1.952,0.147c-0.588,0.098 -1.114,0.219 -1.577,0.361c-0.09,-0.161 -0.165,-0.392 -0.227,-0.696c-0.064,-0.303 -0.094,-0.587 -0.094,-0.854c0.463,-0.143 1.033,-0.264 1.711,-0.362c0.677,-0.097 1.372,-0.146 2.085,-0.146c1.729,0 3.011,0.378 3.85,1.135c0.837,0.758 1.256,1.948 1.256,3.569l0,9.009c-0.624,0.126 -1.381,0.25 -2.272,0.374c-0.892,0.125 -1.738,0.187 -2.54,0.187c-1.657,0 -2.963,-0.329 -3.916,-0.989c-0.954,-0.659 -1.431,-1.728 -1.431,-3.208c0,-0.712 0.139,-1.35 0.415,-1.911c0.276,-0.561 0.659,-1.033 1.15,-1.416c0.489,-0.383 1.077,-0.674 1.764,-0.869c0.686,-0.196 1.439,-0.295 2.259,-0.295c0.642,0 1.194,0.023 1.657,0.068c0.463,0.044 0.846,0.084 1.15,0.119l0,-0.828Z" style="fill:#343535;fill-rule:nonzero;"/><path d="M147.403,61.482c-0.107,-0.659 -0.161,-1.31 -0.161,-1.951c0,-0.642 0.054,-1.301 0.161,-1.979c0.659,-0.107 1.31,-0.16 1.951,-0.16c0.642,0 1.301,0.053 1.979,0.16c0.106,0.678 0.16,1.327 0.16,1.952c0,0.66 -0.054,1.319 -0.16,1.978c-0.678,0.107 -1.328,0.161 -1.952,0.161c-0.66,0 -1.319,-0.054 -1.978,-0.161" style="fill:#343535;fill-rule:nonzero;"/><path d="M164.378,58.22c0.214,0.357 0.392,0.772 0.535,1.243c0.142,0.473 0.214,1.03 0.214,1.672c-0.714,0.285 -1.383,0.467 -2.006,0.547c-0.624,0.081 -1.274,0.121 -1.951,0.121c-1.159,0 -2.165,-0.184 -3.021,-0.548c-0.856,-0.365 -1.564,-0.869 -2.125,-1.511c-0.561,-0.642 -0.985,-1.404 -1.27,-2.285c-0.285,-0.883 -0.427,-1.841 -0.427,-2.874c0,-1.016 0.137,-1.961 0.414,-2.834c0.276,-0.873 0.695,-1.639 1.256,-2.299c0.562,-0.66 1.261,-1.177 2.099,-1.551c0.837,-0.373 1.809,-0.562 2.914,-0.562c0.391,0 0.752,0.011 1.082,0.027c0.33,0.019 0.646,0.054 0.95,0.108c0.303,0.054 0.605,0.124 0.908,0.214c0.303,0.089 0.642,0.205 1.016,0.347c0,0.411 -0.053,0.869 -0.16,1.377c-0.107,0.508 -0.277,0.994 -0.508,1.457c-0.535,-0.178 -1.002,-0.298 -1.404,-0.36c-0.4,-0.063 -0.86,-0.095 -1.376,-0.095c-1.106,0 -1.939,0.361 -2.5,1.083c-0.562,0.722 -0.842,1.751 -0.842,3.088c0,1.443 0.303,2.496 0.908,3.155c0.607,0.659 1.426,0.988 2.461,0.988c0.266,0 0.512,-0.004 0.735,-0.013c0.222,-0.009 0.44,-0.031 0.654,-0.067c0.214,-0.035 0.432,-0.089 0.655,-0.16c0.223,-0.072 0.485,-0.16 0.789,-0.268" style="fill:#343535;fill-rule:nonzero;"/><path d="M166.65,61.161l6.229,-10.587l-5.293,0c-0.054,-0.266 -0.089,-0.524 -0.108,-0.774c-0.017,-0.25 -0.026,-0.499 -0.026,-0.749c0,-0.232 0.009,-0.459 0.026,-0.681c0.019,-0.223 0.054,-0.459 0.108,-0.709l10.88,0l0.133,0.321l-6.334,10.586l5.881,0c0.053,0.268 0.088,0.526 0.106,0.775c0.018,0.25 0.027,0.499 0.027,0.749c0,0.231 -0.009,0.459 -0.027,0.682c-0.018,0.222 -0.053,0.459 -0.106,0.708l-11.282,0l-0.214,-0.321Z" style="fill:#343535;fill-rule:nonzero;"/></g><g><path d="M101.956,34.045c-0.001,0.837 -5.676,1.517 -12.677,1.517c-6.999,0 -12.675,-0.68 -12.675,-1.517c0,-0.838 5.675,-1.517 12.676,-1.517c7,0 12.676,0.679 12.676,1.517" style="fill:#cececf;"/><path d="M89.479,33.924c-0.433,-0.129 -7.404,-2.254 -11.069,-6.319c-3.782,-4.197 -3.724,-10.108 -3.724,-14.423c0.001,-4.315 0.237,-7.803 3.901,-9.044c3.667,-1.242 10.913,-4.138 10.913,-4.138l0.319,0.127c1.437,0.571 7.386,2.925 10.594,4.011c3.665,1.241 3.901,4.729 3.901,9.044c0,4.315 0.059,10.226 -3.724,14.423c-3.783,4.196 -11.09,6.325 -11.09,6.325l-0.021,-0.006Z" style="fill:#0d579d;"/><path d="M89.5,0c-0.001,0 -7.246,2.896 -10.913,4.138c-3.665,1.241 -3.901,4.729 -3.901,9.044c0,4.315 -0.059,10.226 3.724,14.423c3.783,4.196 11.089,6.325 11.089,6.325l0,-33.93Z" style="fill:#2262ae;fill-rule:nonzero;"/><path d="M97.94,13.433l-5.06,0l0.001,-5.059l-6.987,0l0,5.059l-5.058,0l0,6.986l5.058,0l0,5.059l6.986,0l0,-5.059l5.059,0l0,-6.986Z" style="fill:#fff;"/></g></g></svg>